<?xml version="1.0" encoding="UTF-8"?>
<!-- Created with Grafika (https://www.grafika.cc/) -->
<svg xmlns="http://www.w3.org/2000/svg" xmlns:svg="http://www.w3.org/2000/svg" xmlns:xlink="http://www.w3.org/1999/xlink" width="1271.37" height="576.8" viewBox="0 0 1271.37 576.8" preserveAspectRatio="xMidYMid meet">
	<g transform="matrix(1, 0, 0, 1, 635.6857299804688, 288.3977966308594)">
		<path transform="matrix(1.1832597255706787, 0, 0, 1.1832597255706787, -5.98046875, 68.09684753417969)" d="M-374.18,19.94 L-356.91,122.54 Q-354.78,135.2 -350.64,138.67 Q-346.49,142.14 -337.73,140.67 Q-334.12,140.06 -331.89,138.47 Q-331.77,155.8 -335.63,163.49 Q-339.42,171.09 -352.09,173.23 Q-367.19,175.77 -376.33,169.58 Q-385.42,163.31 -390.57,151.15 Q-392.14,156.64 -394.62,162.21 Q-397.09,167.77 -401.14,172.47 Q-405.13,177.15 -410.9,180.63 Q-416.68,184.1 -424.78,185.46 Q-434.43,187.08 -444.39,185.05 Q-454.37,182.94 -463.46,176.14 Q-472.5,169.26 -479.47,156.64 Q-486.36,144.02 -489.67,124.36 Q-492,110.51 -491.33,95.17 Q-490.65,79.84 -485.95,66.4 Q-481.25,52.88 -471.62,43.08 Q-461.92,33.2 -446.23,30.56 Q-442.63,29.95 -438.35,29.68 Q-434.01,29.41 -429.82,30.44 Q-425.57,31.39 -421.72,34 Q-417.87,36.61 -415.19,41.77 L-417.63,27.26 L-374.18,19.94 ZM-429.47,46.9 Q-436.76,48.12 -441.03,55.2 Q-445.21,62.27 -446.83,72.01 Q-448.45,81.75 -448.14,93.05 Q-447.76,104.28 -446.09,114.22 Q-443.39,130.28 -439.53,138.79 Q-435.61,147.22 -431.46,150.76 Q-427.24,154.22 -423.21,154.3 Q-419.18,154.38 -416.46,153.92 Q-413.15,153.36 -409.96,151.16 Q-406.78,148.88 -404.47,145.08 Q-402.15,141.28 -401.19,136.2 Q-400.17,131.03 -401.28,124.4 L-412.81,55.91 Q-413.6,54.83 -414.89,53 Q-416.11,51.16 -418.25,49.7 Q-420.32,48.16 -423.12,47.27 Q-425.86,46.29 -429.47,46.9 ZM-155.11,-55.4 Q-153.18,-43.91 -156.99,-36 Q-160.74,-28.1 -170.09,-26.52 Q-178.56,-25.1 -186.26,-30.32 Q-182.57,-34.04 -181.24,-40.1 Q-179.92,-46.23 -180.94,-52.27 Q-182.51,-61.62 -189.57,-66.64 Q-196.62,-71.67 -209,-69.58 Q-222.55,-67.3 -227.31,-58.7 Q-232.09,-50.17 -229.95,-37.5 Q-227.47,-22.77 -218.83,-14.61 Q-210.19,-6.45 -198.4,-0.78 Q-186.56,4.8 -173.21,9.37 Q-159.87,13.94 -147.82,21.23 Q-135.76,28.51 -126.53,40.14 Q-117.23,51.75 -113.87,71.71 Q-111.03,88.58 -114.6,101.6 Q-118.16,114.62 -126.51,123.97 Q-134.87,133.26 -147.54,138.95 Q-160.22,144.64 -175.9,147.28 Q-189.82,149.63 -203.71,149.01 Q-217.6,148.39 -229.15,143.67 Q-240.62,138.94 -248.76,129.33 Q-256.9,119.64 -259.49,104.25 Q-261.21,94.01 -259.77,85.06 Q-258.32,76.1 -254.34,69.6 Q-250.3,63.01 -244.2,58.73 Q-238.11,54.45 -230.82,53.22 Q-227.21,52.61 -222.86,52.79 Q-218.44,52.96 -213.86,54.53 Q-209.28,56.11 -205.01,59.41 Q-200.67,62.69 -197.64,68.09 Q-203.09,69 -208.33,71.17 Q-213.51,73.26 -217.42,77.02 Q-221.26,80.77 -223.09,86.53 Q-224.93,92.22 -223.56,100.4 Q-220.92,116.08 -210.13,121.23 Q-199.27,126.37 -184.83,123.94 Q-170.32,121.5 -163.68,113.27 Q-156.97,105.02 -159.82,88.08 Q-162.46,72.39 -170.76,62.65 Q-179.08,52.84 -190.46,46.43 Q-201.77,39.93 -214.31,34.77 Q-226.76,29.59 -238.11,22.94 Q-249.45,16.29 -257.8,6.26 Q-266.17,-3.84 -268.91,-20.12 Q-273.32,-46.34 -258.17,-62.97 Q-242.96,-79.7 -212.84,-84.77 Q-208.57,-85.48 -199.9,-86.19 Q-191.16,-86.9 -181.9,-84.52 Q-172.65,-82.21 -165.01,-75.55 Q-157.39,-68.95 -155.11,-55.4 ZM-22.45,91.69 Q-13.39,90.17 -6.87,86.57 Q-0.29,82.96 4.41,78.01 Q9.16,72.97 12.73,66.69 Q16.35,60.32 19.48,53.28 L29.79,51.54 Q27.3,62.8 23.09,73.8 Q18.94,84.73 11.65,94.06 Q4.35,103.31 -6.32,110.11 Q-16.93,116.82 -32.32,119.41 Q-45.29,121.59 -56.84,119.52 Q-68.34,117.36 -77.75,110.47 Q-87.11,103.48 -93.73,91.12 Q-100.3,78.67 -103.39,60.33 Q-105.58,47.29 -105.21,31.93 Q-104.86,16.5 -99.77,2.61 Q-94.68,-11.27 -83.72,-21.75 Q-72.78,-32.3 -53.77,-35.5 Q-39.27,-37.94 -30.7,-34.76 Q-22.07,-31.59 -17.29,-26.19 Q-12.52,-20.78 -10.82,-15.16 Q-9.04,-9.55 -8.63,-7.12 Q-6.35,6.43 -9.62,17.58 Q-12.83,28.65 -19.97,37.12 Q-27.1,45.59 -37.15,51.15 Q-47.19,56.7 -58.28,59.25 Q-54.59,79.38 -46.65,86.9 Q-38.72,94.43 -22.45,91.69 ZM-31.86,-2.91 Q-33.64,-13.52 -37.98,-17.25 Q-42.32,-20.99 -46.52,-20.28 Q-51.67,-19.42 -55.1,-13.69 Q-58.47,-8.05 -60.24,0.81 Q-62.02,9.59 -62.12,21.12 Q-62.16,32.56 -60.72,44.74 Q-53.31,42.89 -47.26,38.31 Q-41.14,33.72 -37.3,27.32 Q-33.38,20.9 -31.94,13.24 Q-30.44,5.49 -31.86,-2.91 ZM46.63,-50.88 L49.77,-32.17 Q55.08,-41.17 62.22,-48.66 Q69.36,-56.22 79,-57.85 Q84.75,-58.81 89.8,-57.16 Q94.91,-55.6 99.04,-52.2 Q103.16,-48.88 105.87,-44.49 Q108.64,-40.19 109.44,-35.4 Q110.56,-28.77 107.37,-22.48 Q104.27,-16.2 94.91,-14.63 Q87.99,-13.46 84.76,-16.02 Q81.52,-18.58 79.39,-21.78 Q77.34,-25 75.14,-27.73 Q73.01,-30.48 68.81,-29.77 Q64.32,-29.02 60.48,-24.81 Q56.72,-20.62 52.72,-14.65 L72.01,99.95 L28.63,107.25 L3.25,-43.58 L46.63,-50.88 ZM194.68,-82.01 Q210.07,-84.6 219.39,-70.64 Q228.71,-56.69 233.17,-30.17 Q236.07,-12.94 236.1,5.69 Q236.12,24.24 231.32,40.27 Q226.59,56.29 216.26,67.8 Q206,79.3 188.18,82.3 Q166.45,85.95 152.09,74.43 Q137.79,62.83 133.94,39.92 L116.67,-62.67 L160.05,-69.97 L177.32,32.62 Q179.14,43.45 183,47.95 Q186.85,52.38 193.78,51.21 Q202.54,49.73 207.71,41.75 Q212.88,33.76 215.11,22.25 Q217.4,10.65 217.08,-2.93 Q216.83,-16.59 214.69,-29.26 Q212.36,-43.1 207.9,-54.77 Q207.57,-53.13 204.38,-51.83 Q201.19,-50.54 199.35,-50.23 Q196.04,-49.67 193.16,-51.01 Q190.35,-52.43 187.87,-54.96 Q185.48,-57.51 183.81,-60.64 Q182.22,-63.78 181.72,-66.8 Q180.8,-72.25 183.95,-76.49 Q187.1,-80.73 194.68,-82.01 ZM331.71,32.08 Q340.77,30.56 347.28,26.96 Q353.87,23.36 358.57,18.4 Q363.32,13.36 366.88,7.08 Q370.51,0.71 373.64,-6.33 L383.95,-8.06 Q381.45,3.19 377.25,14.2 Q373.1,25.12 365.81,34.45 Q358.51,43.71 347.84,50.5 Q337.23,57.21 321.83,59.8 Q308.87,61.98 297.31,59.91 Q285.82,57.76 276.4,50.86 Q267.05,43.88 260.42,31.51 Q253.86,19.06 250.77,0.72 Q248.58,-12.32 248.95,-27.68 Q249.3,-43.11 254.39,-56.99 Q259.47,-70.88 270.43,-81.35 Q281.38,-91.91 300.38,-95.1 Q314.89,-97.55 323.45,-94.37 Q332.09,-91.2 336.86,-85.79 Q341.64,-80.39 343.34,-74.77 Q345.12,-69.16 345.52,-66.73 Q347.81,-53.18 344.53,-42.02 Q341.32,-30.95 334.19,-22.48 Q327.06,-14.01 317.01,-8.46 Q306.96,-2.91 295.88,-0.36 Q299.57,19.77 307.5,27.3 Q315.43,34.82 331.71,32.08 ZM322.3,-62.52 Q320.52,-73.12 316.18,-76.86 Q311.84,-80.6 307.64,-79.89 Q302.48,-79.02 299.05,-73.3 Q295.69,-67.66 293.92,-58.8 Q292.14,-50.02 292.04,-38.49 Q291.99,-27.05 293.44,-14.87 Q300.85,-16.72 306.9,-21.3 Q313.02,-25.89 316.86,-32.29 Q320.78,-38.71 322.22,-46.37 Q323.71,-54.12 322.3,-62.52 ZM400.78,-110.49 L403.93,-91.78 Q409.23,-100.78 416.38,-108.27 Q423.51,-115.83 433.16,-117.45 Q438.91,-118.42 443.95,-116.77 Q449.06,-115.21 453.2,-111.81 Q457.31,-108.49 460.02,-104.1 Q462.79,-99.79 463.6,-95.01 Q464.71,-88.38 461.53,-82.09 Q458.42,-75.81 449.07,-74.23 Q442.15,-73.07 438.91,-75.63 Q435.68,-78.19 433.55,-81.39 Q431.49,-84.61 429.29,-87.34 Q427.16,-90.09 422.97,-89.38 Q418.47,-88.62 414.64,-84.42 Q410.87,-80.23 406.88,-74.25 L426.17,40.35 L382.79,47.65 L357.4,-103.19 L400.78,-110.49 ZM497.75,-43.35 L465.17,-183.35 L508.62,-190.67 L523.38,-47.66 L497.75,-43.35 ZM493.97,4.4 Q492.29,-5.55 498.03,-13.78 Q503.83,-22.03 513.78,-23.7 Q523.72,-25.38 531.98,-19.5 Q540.24,-13.62 541.91,-3.67 Q543.6,6.34 537.69,14.46 Q531.79,22.57 521.85,24.24 Q511.9,25.92 503.74,20.17 Q495.65,14.41 493.97,4.4 Z" style="fill:#FFFFFF;" />
		<path transform="matrix(3.0591211318969727, 0, 0, 3.0591211318969727, -201.83367919921875, -178.6034698486328)" d="M-104.3,0.66 Q-103.66,4.41 -104.91,7 Q-106.14,9.58 -109.19,10.1 Q-111.96,10.56 -114.48,8.86 Q-113.27,7.64 -112.84,5.66 Q-112.41,3.65 -112.74,1.68 Q-113.25,-1.38 -115.56,-3.02 Q-117.87,-4.66 -121.91,-3.98 Q-126.34,-3.23 -127.9,-0.42 Q-129.46,2.37 -128.76,6.51 Q-127.95,11.32 -125.13,13.99 Q-122.3,16.66 -118.45,18.51 Q-114.58,20.34 -110.22,21.83 Q-105.85,23.32 -101.91,25.71 Q-97.97,28.09 -94.96,31.89 Q-91.92,35.68 -90.82,42.21 Q-89.89,47.72 -91.05,51.98 Q-92.22,56.23 -94.95,59.29 Q-97.68,62.33 -101.82,64.19 Q-105.97,66.05 -111.09,66.91 Q-115.64,67.68 -120.18,67.48 Q-124.72,67.27 -128.5,65.73 Q-132.25,64.18 -134.91,61.04 Q-137.57,57.88 -138.42,52.84 Q-138.98,49.5 -138.51,46.57 Q-138.04,43.64 -136.73,41.52 Q-135.41,39.36 -133.42,37.97 Q-131.43,36.57 -129.04,36.16 Q-127.86,35.97 -126.44,36.02 Q-125,36.08 -123.5,36.59 Q-122,37.11 -120.61,38.19 Q-119.19,39.26 -118.2,41.02 Q-119.98,41.32 -121.69,42.03 Q-123.39,42.71 -124.67,43.94 Q-125.92,45.17 -126.52,47.05 Q-127.12,48.91 -126.67,51.58 Q-125.81,56.71 -122.28,58.4 Q-118.73,60.08 -114.01,59.28 Q-109.27,58.48 -107.1,55.79 Q-104.9,53.1 -105.84,47.56 Q-106.7,42.43 -109.41,39.25 Q-112.13,36.04 -115.85,33.94 Q-119.55,31.82 -123.65,30.13 Q-127.72,28.44 -131.43,26.27 Q-135.14,24.09 -137.87,20.81 Q-140.6,17.51 -141.5,12.19 Q-142.94,3.62 -137.99,-1.82 Q-133.02,-7.29 -123.17,-8.94 Q-121.77,-9.18 -118.94,-9.41 Q-116.08,-9.64 -113.05,-8.86 Q-110.03,-8.11 -107.53,-5.93 Q-105.04,-3.77 -104.3,0.66 ZM-76.22,8.51 L-70.57,42.04 Q-69.88,46.18 -68.52,47.32 Q-67.14,48.45 -64.3,47.97 Q-61.44,47.49 -59.93,44.71 Q-58.42,41.9 -58.76,38.12 L-54.61,37.43 Q-54.4,43.58 -55.76,47.52 Q-57.11,51.44 -59.26,53.78 Q-61.4,56.1 -63.88,57.13 Q-66.33,58.16 -68.3,58.5 Q-75.91,59.78 -79.67,56.1 Q-83.41,52.4 -84.57,45.51 L-90.4,10.89 L-76.22,8.51 ZM-93.71,-2.04 Q-94.26,-5.29 -92.39,-7.98 Q-90.49,-10.68 -87.24,-11.23 Q-83.99,-11.77 -81.29,-9.85 Q-78.56,-7.93 -78.02,-4.68 Q-77.47,-1.43 -79.42,1.25 Q-81.35,3.9 -84.6,4.45 Q-87.85,4.99 -90.52,3.12 Q-93.17,1.21 -93.71,-2.04 ZM-11.28,17.66 Q-12.28,11.73 -14.1,9.46 Q-15.9,7.17 -18.26,7.57 Q-21.12,8.05 -22.01,10.99 Q-22.88,13.94 -22.55,17.62 L-19.75,34.31 L-33.99,36.47 L-37.16,17.65 Q-37.35,16.47 -37.75,15.28 Q-38.16,14.06 -38.82,13.23 Q-39.46,12.37 -40.41,11.86 Q-41.36,11.35 -42.64,11.57 Q-45.31,12.02 -46.27,14.98 Q-47.23,17.94 -46.92,21.72 L-41.59,53.38 L-55.77,55.77 L-64.07,6.46 L-49.89,4.08 L-49.03,9.2 Q-47.24,5.26 -44.52,3.74 Q-41.78,2.22 -39.21,1.78 Q-35.57,1.17 -32.12,2.42 Q-28.67,3.65 -25.86,8.25 Q-25.11,5.38 -23.87,3.46 Q-22.62,1.52 -21.15,0.35 Q-19.67,-0.81 -18.1,-1.37 Q-16.51,-1.94 -15.04,-2.19 Q-12.28,-2.65 -9.62,-2.18 Q-6.95,-1.74 -4.67,0.05 Q-2.38,1.85 -0.71,5.18 Q0.96,8.49 1.83,13.62 Q2.04,14.92 2.32,16.85 Q2.59,18.76 2.8,20.76 Q3.04,22.75 3.31,24.63 Q3.58,26.52 3.79,27.79 Q4.5,32.03 5.9,33.98 Q7.29,35.92 10.35,35.41 Q12.03,35.12 13.01,34.31 Q13.98,33.48 14.46,32.19 Q14.96,30.89 15.13,29.25 Q15.32,27.59 15.41,25.64 L19.55,24.94 Q19.73,30.88 18.75,34.76 Q17.79,38.61 16.15,40.92 Q14.51,43.22 12.31,44.26 Q10.1,45.3 7.82,45.69 Q0.43,46.93 -3.82,42.47 Q-8.06,38.01 -9.47,29.63 Q-9.62,28.74 -9.84,27.12 Q-10.07,25.47 -10.37,23.69 Q-10.67,21.91 -10.9,20.24 Q-11.13,18.55 -11.28,17.66 ZM23.65,-12.07 L24.9,-4.65 Q26.29,-6.72 28.63,-8.37 Q31,-10.03 34.66,-10.65 Q38.01,-11.21 41.23,-10.44 Q44.45,-9.67 47.24,-7.25 Q50.02,-4.84 52.18,-0.43 Q54.35,3.98 55.46,10.58 Q56.26,15.32 56.22,20.21 Q56.17,25.07 54.73,29.17 Q53.29,33.25 50.17,36.18 Q47.06,39.08 41.84,39.96 Q38.11,40.59 35.74,39.92 Q33.4,39.25 32.08,38.04 L36.12,62.02 L22.53,67.94 L9.47,-9.68 L23.65,-12.07 ZM35.67,32.16 Q38.23,31.73 39.72,29.72 Q41.21,27.69 41.78,24.74 Q42.35,21.8 42.21,18.33 Q42.07,14.87 41.51,11.52 Q40.59,6.08 39.12,3.08 Q37.68,0.08 36.12,-1.22 Q34.59,-2.54 33.3,-2.72 Q32,-2.92 31.3,-2.81 Q29.52,-2.51 28.04,-0.97 Q26.59,0.54 26.21,3.13 L30.84,30.64 Q31.48,31.35 32.69,31.92 Q33.89,32.46 35.67,32.16 ZM67.1,-35.89 L76.06,17.36 Q76.76,21.51 78.11,22.64 Q79.49,23.77 82.33,23.29 Q85.2,22.81 86.71,20.03 Q88.22,17.22 87.88,13.44 L92.02,12.75 Q92.24,18.9 90.87,22.84 Q89.53,26.76 87.37,29.1 Q85.24,31.42 82.76,32.45 Q80.31,33.48 78.34,33.82 Q70.73,35.1 66.97,31.42 Q63.22,27.72 62.06,20.83 L53.25,-31.53 L67.1,-35.89 ZM121.11,-24.71 L130.74,32.5 Q131.62,37.72 130.9,41.24 Q130.18,44.75 128.46,46.92 Q126.75,49.09 124.42,50.12 Q122.12,51.18 119.86,51.56 Q117,52.04 114.33,51.67 Q111.7,51.3 109.63,50.19 Q107.56,49.08 106.13,47.19 Q104.7,45.3 104.26,42.72 Q103.82,40.07 104.59,37.74 Q105.39,35.43 106.97,33.53 Q108.59,31.65 110.76,30.12 Q112.95,28.59 115.27,27.38 L114.36,21.96 Q113.4,24.05 112.14,25.38 Q110.9,26.7 109.56,27.55 Q108.23,28.36 106.84,28.8 Q105.46,29.25 104.16,29.47 Q97.18,30.65 93.38,27.03 Q89.57,23.41 88.39,16.4 L82.57,-18.22 L96.75,-20.6 L102.39,12.93 Q103.02,16.66 104.31,18.03 Q105.6,19.37 107.58,19.04 Q110.25,18.59 111.4,15.87 Q112.57,13.13 112.24,9.34 L106.91,-22.31 L121.11,-24.71 ZM109.34,40.95 Q109.67,42.93 111.19,43.88 Q112.74,44.86 114.11,44.63 Q115.9,44.33 116.61,41.96 Q117.33,39.61 116.58,35.18 L116.1,32.31 Q112.99,34.27 110.95,36.42 Q108.94,38.59 109.34,40.95 Z" style="fill:#FFFFFF;" />
	</g>
</svg>