<?xml version="1.0" encoding="UTF-8"?>
<!-- Created with Grafika (https://www.grafika.cc/) -->
<svg xmlns="http://www.w3.org/2000/svg" xmlns:svg="http://www.w3.org/2000/svg" xmlns:xlink="http://www.w3.org/1999/xlink" width="405.2" height="401.89" viewBox="0 0 405.2 401.89" preserveAspectRatio="xMidYMid meet">
	<g transform="matrix(1.2752293348312378, 0, 0, 1.2752293348312378, 202.60235595703125, 200.94268798828125)">
		<path transform="matrix(0.6380253434181213, 0, 0, 0.6380253434181213, -136.89706420898438, 22.664306640625)" d="M101.39,-245.87 Q103.67,-232.28 99.16,-222.92 Q94.72,-213.57 83.66,-211.7 Q73.64,-210.02 64.53,-216.19 Q68.9,-220.6 70.47,-227.77 Q72.03,-235.02 70.82,-242.16 Q68.96,-253.23 60.61,-259.17 Q52.26,-265.12 37.62,-262.65 Q21.59,-259.95 15.95,-249.78 Q10.3,-239.68 12.83,-224.7 Q15.76,-207.27 25.99,-197.61 Q36.22,-187.95 50.16,-181.24 Q64.18,-174.64 79.96,-169.23 Q95.75,-163.82 110.01,-155.2 Q124.28,-146.58 135.2,-132.82 Q146.2,-119.08 150.18,-95.47 Q153.54,-75.51 149.32,-60.1 Q145.1,-44.7 135.23,-33.62 Q125.34,-22.64 110.34,-15.9 Q95.34,-9.17 76.78,-6.04 Q60.31,-3.27 43.88,-4 Q27.44,-4.73 13.78,-10.32 Q0.2,-15.92 -9.42,-27.29 Q-19.06,-38.75 -22.12,-56.97 Q-24.16,-69.08 -22.45,-79.67 Q-20.74,-90.27 -16.03,-97.96 Q-11.25,-105.76 -4.03,-110.82 Q3.18,-115.89 11.81,-117.34 Q16.08,-118.06 21.22,-117.85 Q26.45,-117.66 31.87,-115.79 Q37.29,-113.93 42.34,-110.03 Q47.48,-106.14 51.06,-99.75 Q44.61,-98.67 38.41,-96.1 Q32.28,-93.64 27.66,-89.18 Q23.12,-84.75 20.95,-77.93 Q18.77,-71.2 20.39,-61.52 Q23.52,-42.96 36.28,-36.87 Q49.14,-30.78 66.22,-33.66 Q83.38,-36.55 91.24,-46.3 Q99.19,-56.06 95.82,-76.1 Q92.69,-94.66 82.87,-106.18 Q73.03,-117.79 59.56,-125.38 Q46.17,-133.07 31.34,-139.18 Q16.6,-145.3 3.18,-153.17 Q-10.25,-161.04 -20.13,-172.91 Q-30.03,-184.86 -33.27,-204.12 Q-38.49,-235.15 -20.57,-254.83 Q-2.57,-274.62 33.08,-280.62 Q38.13,-281.47 48.39,-282.3 Q58.73,-283.14 69.69,-280.33 Q80.63,-277.6 89.67,-269.71 Q98.69,-261.91 101.39,-245.87 Z" style="fill:#FFFFFF;" />
		<path transform="matrix(1.0006811618804932, 0, 0, 1.0006811618804932, 171.0723876953125, 166.98974609375)" d="M-214.45,-134.79 L-201.43,-57.41 Q-199.82,-47.86 -196.7,-45.24 Q-193.57,-42.62 -186.96,-43.74 Q-184.24,-44.2 -182.56,-45.39 Q-182.47,-32.33 -185.38,-26.53 Q-188.24,-20.79 -197.79,-19.18 Q-209.18,-17.26 -216.08,-21.93 Q-222.93,-26.66 -226.81,-35.83 Q-228,-31.69 -229.87,-27.49 Q-231.73,-23.29 -234.79,-19.75 Q-237.79,-16.22 -242.15,-13.6 Q-246.51,-10.98 -252.62,-9.95 Q-259.9,-8.73 -267.41,-10.26 Q-274.93,-11.85 -281.79,-16.98 Q-288.6,-22.17 -293.86,-31.69 Q-299.06,-41.21 -301.56,-56.04 Q-303.32,-66.48 -302.81,-78.05 Q-302.3,-89.61 -298.75,-99.75 Q-295.21,-109.94 -287.94,-117.33 Q-280.63,-124.79 -268.8,-126.78 Q-266.08,-127.24 -262.85,-127.44 Q-259.58,-127.65 -256.42,-126.87 Q-253.21,-126.15 -250.31,-124.18 Q-247.41,-122.21 -245.38,-118.33 L-247.23,-129.27 L-214.45,-134.79 ZM-256.16,-114.46 Q-261.66,-113.53 -264.87,-108.19 Q-268.03,-102.86 -269.25,-95.52 Q-270.47,-88.17 -270.23,-79.65 Q-269.95,-71.18 -268.69,-63.68 Q-266.65,-51.57 -263.74,-45.15 Q-260.79,-38.79 -257.65,-36.12 Q-254.47,-33.52 -251.43,-33.46 Q-248.4,-33.4 -246.34,-33.74 Q-243.84,-34.16 -241.44,-35.83 Q-239.04,-37.54 -237.3,-40.41 Q-235.55,-43.27 -234.82,-47.11 Q-234.05,-51.01 -234.89,-56 L-243.59,-107.66 Q-244.18,-108.48 -245.16,-109.85 Q-246.08,-111.24 -247.69,-112.34 Q-249.26,-113.51 -251.37,-114.18 Q-253.43,-114.92 -256.16,-114.46 ZM-98.15,-183.38 Q-96.69,-174.71 -99.57,-168.74 Q-102.39,-162.79 -109.45,-161.6 Q-115.84,-160.52 -121.64,-164.46 Q-118.86,-167.27 -117.85,-171.84 Q-116.86,-176.46 -117.63,-181.01 Q-118.81,-188.07 -124.14,-191.86 Q-129.46,-195.64 -138.79,-194.07 Q-149.01,-192.35 -152.6,-185.87 Q-156.2,-179.43 -154.59,-169.88 Q-152.73,-158.77 -146.21,-152.61 Q-139.69,-146.46 -130.8,-142.18 Q-121.86,-137.97 -111.8,-134.53 Q-101.74,-131.08 -92.65,-125.58 Q-83.55,-120.09 -76.6,-111.32 Q-69.58,-102.56 -67.05,-87.51 Q-64.91,-74.79 -67.59,-64.97 Q-70.28,-55.15 -76.58,-48.09 Q-82.88,-41.09 -92.44,-36.8 Q-102,-32.5 -113.83,-30.51 Q-124.33,-28.75 -134.8,-29.21 Q-145.28,-29.68 -153.99,-33.24 Q-162.64,-36.81 -168.78,-44.06 Q-174.92,-51.36 -176.87,-62.97 Q-178.17,-70.69 -177.08,-77.44 Q-175.99,-84.2 -172.99,-89.1 Q-169.94,-94.07 -165.34,-97.3 Q-160.74,-100.53 -155.24,-101.45 Q-152.52,-101.91 -149.24,-101.78 Q-145.91,-101.65 -142.46,-100.47 Q-139,-99.28 -135.78,-96.79 Q-132.51,-94.31 -130.22,-90.24 Q-134.33,-89.55 -138.29,-87.92 Q-142.19,-86.34 -145.14,-83.51 Q-148.04,-80.68 -149.42,-76.33 Q-150.81,-72.04 -149.77,-65.88 Q-147.78,-54.04 -139.64,-50.16 Q-131.45,-46.28 -120.56,-48.12 Q-109.62,-49.96 -104.61,-56.17 Q-99.55,-62.39 -101.7,-75.17 Q-103.69,-87 -109.95,-94.34 Q-116.22,-101.74 -124.81,-106.58 Q-133.34,-111.48 -142.79,-115.37 Q-152.19,-119.28 -160.74,-124.29 Q-169.3,-129.3 -175.6,-136.87 Q-181.91,-144.49 -183.97,-156.77 Q-187.3,-176.54 -175.88,-189.09 Q-164.41,-201.7 -141.69,-205.52 Q-138.47,-206.07 -131.93,-206.59 Q-125.34,-207.13 -118.35,-205.34 Q-111.38,-203.6 -105.62,-198.57 Q-99.87,-193.6 -98.15,-183.38 ZM-45.78,-100.23 L-70.35,-205.82 L-37.58,-211.34 L-26.45,-103.48 L-45.78,-100.23 ZM-48.63,-64.22 Q-49.89,-71.72 -45.57,-77.93 Q-41.19,-84.15 -33.69,-85.41 Q-26.19,-86.67 -19.96,-82.24 Q-13.73,-77.81 -12.47,-70.31 Q-11.2,-62.75 -15.65,-56.63 Q-20.11,-50.51 -27.61,-49.25 Q-35.1,-47.99 -41.26,-52.32 Q-47.36,-56.67 -48.63,-64.22 Z" style="fill:#FFFFFF;" />
	</g>
</svg>